<svg width="304" height="64" viewBox="0 0 304 64" fill="none" xmlns="http://www.w3.org/2000/svg">
<path d="M29.2591 20.0179L30.0373 20.4226L30.0062 31.1613L29.6949 32.313L30.0062 32.7176L30.0995 44.8882L34.5818 43.8921L42.0522 44.2034L45.1337 44.7948L45.0092 33.3091L45.3828 31.9706L44.9781 30.9746L44.947 20.2358L46.3788 19.2709L46.5033 15.8158L45.3516 15.3489L37.8501 0.0968387C37.8501 0.0968387 37.6633 -0.121048 37.5077 0.0968387L42.1456 14.384C42.1456 14.384 41.9277 14.2906 41.7721 14.3529C41.6476 14.384 37.7256 0.875007 37.5077 0.0968387L37.4766 0.159091L33.1811 14.3218L32.7142 14.3529L37.4454 0.159091L29.4459 15.6913L28.2942 16.096L29.2591 20.0179ZM42.0211 17.9324L43.7953 18.6172L43.8576 25.8386L42.0211 25.4029V17.9324ZM44.1377 33.3402V41.4954L42.0522 40.9662L42.0211 32.811L44.1377 33.3402ZM34.6752 17.7146H40.0601V25.1227H34.6752V17.7146ZM34.6752 32.562H40.0601V40.9662H34.6752V32.562ZM30.9088 18.7729L32.7142 17.9947V25.4651L30.8466 26.1188L30.9088 18.7729ZM30.9088 33.4024L32.7142 32.8733V41.2152L30.8466 41.6821L30.9088 33.4024Z" fill="#26272C"/>
<path d="M37.4455 0.0969238L37.3833 0.221429V0.190305L37.4455 0.0969238Z" fill="#26272C"/>
<path d="M45.2272 23.5974L49.1803 22.2901L53.0088 16.874L46.5656 18.8661L46.5034 19.5198L45.196 20.4225L45.2272 23.5974Z" fill="#26272C"/>
<path d="M22.9404 18.5861C22.7848 18.7418 23.0027 19.2398 23.0027 19.2398L22.8781 30.5699L24.7458 29.9162L27.6094 26.3989L27.765 19.1153L27.9829 18.6484C27.7962 18.4305 27.8273 15.131 27.8273 15.131L28.8234 12.9833L28.0452 12.6098L28.0763 9.5905L28.1074 9.34148L27.8584 9.21698L27.8273 8.22092L25.5862 7.47388L23.6874 8.28317V9.2481L23.3139 9.46599V12.4853L22.3179 12.9211L23.096 15.1622L22.9404 18.5861Z" fill="#26272C"/>
<path d="M22.0377 34.1496L29.5392 31.6283L29.6637 31.1925L29.7571 20.5783L28.7922 20.1114L27.9517 20.983L27.9206 26.3368L24.9947 30.1031C24.9947 30.1031 22.6602 30.9435 22.5979 30.9435L22.6913 23.7844L7.81274 19.5823L15.3454 32.8111L22.0377 34.1496Z" fill="#26272C"/>
<path d="M2.11661 47.6585C2.20999 47.6585 6.22534 46.4756 6.22534 46.4756L13.9759 46.4445L15.0653 46.818L14.3183 47.8452L14.256 49.4949L15.2521 49.0903L21.6642 46.6935L29.6638 44.8882L29.726 32.9355L29.2902 32.3441L29.4459 31.9083L22.0688 34.523L15.0653 33.0912L7.56379 19.7378L0 37.729L2.52127 38.4138C2.55239 38.445 2.05436 47.6585 2.11661 47.6585ZM17.5243 36.0482L20.5436 36.733L20.3257 44.4213L17.2442 43.9233L17.5243 36.0482ZM9.46252 27.7685L10.7387 27.3327L10.5208 31.4103L9.24464 31.8772C9.21351 31.8772 9.49365 27.8619 9.46252 27.7685ZM11.05 37.2621L10.7387 44.7637L8.83999 45.324L9.15125 37.8847C9.21351 37.8224 11.05 37.2621 11.05 37.2621ZM7.65718 28.4533L8.93337 28.0175L8.71548 32.0951L7.43928 32.562C7.40816 32.5309 7.6883 28.5467 7.65718 28.4533ZM6.56774 38.7562C6.66112 38.694 8.46647 38.1337 8.46647 38.1337L8.12408 45.5418L6.16309 46.1644L6.56774 38.7562Z" fill="#26272C"/>
<path d="M11.268 50.8957L11.7038 50.1798L13.8827 49.6195L13.9449 47.5651L14.2251 47.4718L14.692 46.9115L14.0072 46.6936L6.22549 46.787C6.22549 46.787 0.747189 48.4367 0.653809 48.4367L1.15184 49.1215L2.11676 49.9308L1.61874 63.9689H12.5753L12.8866 50.958L11.8906 51.207L11.268 50.8957ZM6.10099 62.0702L2.02338 62.3503L2.36578 53.1057L6.31887 52.2964L6.10099 62.0702ZM12.0151 62.0702L7.99972 62.0391L8.15535 52.1719L12.0151 52.1408V62.0702Z" fill="#26272C"/>
<path d="M36.854 44.3278L34.5195 44.2967L21.7575 47.067L14.2249 49.8373L11.8281 50.3975L11.6102 50.8022L11.5791 50.9267L11.9215 50.9578L36.9163 44.8881L52.3551 47.6584L55.7479 47.2537L60.9772 43.0205L55.8102 43.9543L54.8141 45.2305L50.4564 46.0087L41.9588 44.5457L36.854 44.3278Z" fill="#26272C"/>
<path d="M54.4717 25.4651L54.7829 30.9434L64.1832 34.0872C64.1832 34.0872 64.0587 33.776 64.0587 33.4336C64.0587 33.0601 64.5256 32.7177 64.5256 32.7177C64.5256 32.7177 71.5602 19.5199 71.6225 19.5199C71.6848 19.4888 56.526 24.3134 56.526 24.3134L56.7128 24.8115L54.4717 25.4651Z" fill="#26272C"/>
<path d="M45.196 23.94L49.3048 29.4183L54.4718 30.9747L54.1605 25.2474L56.3705 24.5937L53.1645 17.061L49.3982 22.5082L45.196 23.94ZM53.2579 24.4381L53.3824 30.2588L52.1996 29.9475L52.1373 24.0957L53.2579 24.4381ZM51.2346 23.9089L51.3591 29.7296L50.1763 29.4183L50.1141 23.5665L51.2346 23.9089Z" fill="#26272C"/>
<path d="M54.6274 31.3481L49.1803 29.7295C49.1803 29.7295 45.1338 24.2512 45.0715 24.189L45.196 31.0368C45.196 31.0368 47.9041 31.8773 47.9663 31.8773C48.0286 31.8773 47.8107 31.7528 46.2544 29.6984C49.0869 31.8461 54.5652 31.7839 54.5652 31.7839L65.9887 35.2078L66.2066 35.0522L64.1522 34.274L54.7519 31.2236L54.6274 31.3481Z" fill="#26272C"/>
<path d="M70.4086 31.9084L67.5449 32.4999L67.9184 33.0913L68.8834 49.246L68.9767 49.4017L74.8286 50.5222L76.9141 48.6235L77.1631 47.8765L76.9141 47.8142L76.1048 37.8848L76.3538 37.8536L76.2293 34.5853L77.1008 33.9939L70.4086 31.9084ZM71.9649 44.2969L71.5291 36.702C71.5291 36.702 73.0232 37.1377 73.0855 37.1377C73.1477 37.1377 73.6458 44.7015 73.6458 44.7015L71.9649 44.2969ZM74.2372 44.8883L73.8014 37.2934C73.8014 37.2934 75.2955 37.7291 75.3577 37.7291C75.42 37.7291 75.918 45.2929 75.918 45.2929L74.2372 44.8883Z" fill="#26272C"/>
<path d="M79.4666 36.2973L71.7783 19.6445L64.6191 32.8423C64.6191 32.8423 64.1211 33.1847 64.3078 34.1185C66.2688 34.8344 66.7046 35.0523 66.7046 35.0523L66.0198 35.3947L54.6897 31.9707C54.6897 31.9707 51.3903 32.282 47.3749 30.6323C48.7445 32.2197 48.5577 32.0952 48.5577 32.0952L48.3398 32.2197C48.3398 32.2197 45.2272 31.2548 45.3205 31.2859C45.4139 31.3171 45.6007 31.9396 45.6007 31.9396L45.196 33.278L45.3205 44.8883L50.4565 45.7287L54.7208 44.7949L55.6235 43.7055L61.3197 42.6783L66.6423 49.2149L66.7669 49.3394L66.6112 49.5884L65.7085 49.7752L65.7708 51.5183L66.1132 63.1908V63.969H78.6573C78.4705 59.6113 77.4433 37.0755 77.4122 37.1378L79.2487 36.702L79.4666 36.2973ZM55.4056 39.9703L55.3433 34.7721L56.4639 35.0834L56.5884 40.2504L55.4056 39.9703ZM57.4288 40.4372L57.3666 35.239L58.4872 35.5503L58.6117 40.7173L57.4288 40.4372ZM71.6538 26.4613L72.2452 31.6283L71.1557 31.3171L70.72 26.0878L71.6538 26.4613ZM69.7239 25.7142L70.0974 25.8076L70.5021 31.0369L69.4126 30.6945L69.1636 26.6792L69.7239 25.7142ZM70.0974 61.4477L69.7862 52.3899L73.8326 53.0435L74.2373 61.7279L70.0974 61.4477ZM76.5718 38.0093L76.3539 38.1338L77.1009 47.6586L77.4122 47.7208L77.1009 48.748L74.8598 50.8024L69.0391 49.7441L68.7901 49.5262L68.6656 49.3394L67.7318 33.1224C67.7318 33.1224 67.3271 32.5933 67.2649 32.4999L67.5761 32.3131L70.4398 31.6906C70.4398 31.6906 77.3811 33.994 77.4122 34.1496L76.4473 34.8655L76.5718 38.0093Z" fill="#26272C"/>
<path d="M13.509 51.1758V63.9689H14.2561V54.5375L15.2521 53.1057L21.7265 51.6738L22.7848 52.7944V64H23.6563L23.6252 58.4283C23.6252 58.4283 24.0921 50.1797 29.3837 48.8413C34.6752 47.5028 35.7958 54.9421 36.0137 56.5296C36.1693 57.619 36.2627 61.541 36.2938 63.9689H37.4455L37.57 56.5919C37.57 56.5919 37.4144 47.5651 44.3245 48.779C50.4876 49.8373 50.5187 57.7435 50.5187 57.7435L50.6121 63.9689H51.5459V48.0943L36.8852 45.3862L13.509 51.1758Z" fill="#26272C"/>
<path d="M66.3621 49.2771L61.2884 43.1763L56.1214 47.5029L51.8882 48.0632V48.9347L56.4327 48.7168L56.9307 48.2499V57.6813H56.5261V49.2771H55.1254V63.9067H56.5261V63.7822H65.4906V63.004H64.8369V62.3815H64.2144V61.6967H63.8097V61.043H63.4362V60.3582H63.0315V59.7046H62.658V59.0198H62.2534V58.335H61.8487V57.6813H60.1368V45.2929L61.2573 44.2657L65.6773 49.6195L66.3621 49.2771Z" fill="#26272C"/>
<path d="M54.5651 49.2148H52.2617V64H54.5651V49.2148Z" fill="#26272C"/>
<path d="M60.5728 45.5731V57.0589H62.2536L65.2106 62.3815V50.1487L61.133 44.7949L60.5728 45.5731Z" fill="#26272C"/>
<path d="M104.567 29.234C103.18 29.234 101.915 28.8787 100.771 28.168C99.6266 27.4573 98.7166 26.4173 98.0406 25.048C97.3819 23.6787 97.0526 21.9973 97.0526 20.004C97.0526 18.0453 97.3906 16.364 98.0666 14.96C98.7426 13.556 99.6872 12.4813 100.901 11.736C102.114 10.9907 103.527 10.618 105.139 10.618C106.005 10.618 106.907 10.722 107.843 10.93C108.779 11.138 109.749 11.4673 110.755 11.918L110.573 16H109.299L108.831 12.776L109.221 13.192C108.527 12.8973 107.825 12.6807 107.115 12.542C106.421 12.386 105.771 12.308 105.165 12.308C103.969 12.308 102.937 12.6113 102.071 13.218C101.204 13.8073 100.528 14.6567 100.043 15.766C99.5746 16.8753 99.3406 18.2013 99.3406 19.744C99.3406 21.408 99.5919 22.812 100.095 23.956C100.597 25.1 101.282 25.9753 102.149 26.582C103.033 27.1713 104.021 27.466 105.113 27.466C105.91 27.466 106.742 27.2927 107.609 26.946C108.493 26.5993 109.342 26.0707 110.157 25.36L111.015 26.634C109.992 27.518 108.926 28.1767 107.817 28.61C106.707 29.026 105.624 29.234 104.567 29.234ZM116.584 27.674L116.35 27.388L118.612 27.882V29H112.476V27.882L114.738 27.388L114.504 27.674V16.702L114.712 16.936L112.476 16.468V15.35L116.584 15.194V27.674ZM115.388 12.386C114.989 12.386 114.66 12.256 114.4 11.996C114.14 11.736 114.01 11.3807 114.01 10.93C114.01 10.462 114.14 10.1067 114.4 9.864C114.677 9.604 115.015 9.474 115.414 9.474C115.83 9.474 116.168 9.59533 116.428 9.838C116.688 10.0807 116.818 10.4447 116.818 10.93C116.818 11.398 116.679 11.762 116.402 12.022C116.125 12.2647 115.787 12.386 115.388 12.386ZM124.822 29.234C123.921 29.234 123.21 28.9567 122.69 28.402C122.17 27.83 121.91 26.972 121.91 25.828V16.39L122.248 16.728H119.57V15.584L122.274 15.194L121.91 15.61V12.178L123.99 11.84V15.61L123.704 15.272H127.786L127.708 16.728H123.704L123.99 16.39V25.542C123.99 26.27 124.129 26.7987 124.406 27.128C124.701 27.4573 125.108 27.622 125.628 27.622C125.94 27.622 126.278 27.57 126.642 27.466C127.006 27.362 127.396 27.2147 127.812 27.024L128.254 28.22C127.024 28.896 125.88 29.234 124.822 29.234ZM128.788 35.084L128.97 33.55C129.178 33.5847 129.369 33.6107 129.542 33.628C129.733 33.6453 129.906 33.654 130.062 33.654C130.912 33.654 131.596 33.4547 132.116 33.056C132.654 32.6747 133.104 32.094 133.468 31.314C133.832 30.534 134.205 29.5633 134.586 28.402L134.508 29.182L129.646 16.52L129.932 16.754L128.242 16.468V15.35L133.936 15.168V16.312L131.596 16.702L131.752 16.468L135.626 27.518L135.158 27.414L138.876 16.52L139.032 16.754L136.744 16.468V15.35L142.256 15.168V16.312L140.436 16.728L140.8 16.494L136.224 29.052C135.912 29.9187 135.583 30.7247 135.236 31.47C134.907 32.2153 134.526 32.8653 134.092 33.42C133.659 33.992 133.13 34.434 132.506 34.746C131.882 35.058 131.128 35.214 130.244 35.214C129.846 35.214 129.36 35.1707 128.788 35.084ZM155.009 15.038C156.916 15.038 158.406 15.636 159.481 16.832C160.573 18.028 161.119 19.718 161.119 21.902C161.119 23.3753 160.85 24.6667 160.313 25.776C159.793 26.868 159.048 27.7173 158.077 28.324C157.106 28.9307 155.936 29.234 154.567 29.234C152.695 29.234 151.23 28.6533 150.173 27.492C149.116 26.3133 148.587 24.6233 148.587 22.422C148.587 20.8967 148.838 19.588 149.341 18.496C149.861 17.3867 150.598 16.5373 151.551 15.948C152.522 15.3413 153.674 15.038 155.009 15.038ZM154.905 16.572C153.57 16.572 152.548 17.0747 151.837 18.08C151.126 19.0853 150.771 20.498 150.771 22.318C150.771 24.1033 151.109 25.4467 151.785 26.348C152.461 27.2493 153.432 27.7 154.697 27.7C155.616 27.7 156.387 27.4747 157.011 27.024C157.652 26.556 158.129 25.8973 158.441 25.048C158.77 24.1987 158.935 23.1847 158.935 22.006C158.935 20.238 158.58 18.8947 157.869 17.976C157.176 17.04 156.188 16.572 154.905 16.572ZM163.334 29V27.882L165.622 27.388L165.362 27.7V16.546L165.622 16.832H163.282V15.688L165.674 15.35L165.362 15.74V13.556C165.362 11.9267 165.778 10.7307 166.61 9.968C167.459 9.188 168.569 8.798 169.938 8.798C170.389 8.798 170.848 8.84133 171.316 8.928C171.784 8.99733 172.278 9.11867 172.798 9.292L172.46 10.722C172.061 10.6007 171.68 10.5053 171.316 10.436C170.952 10.3667 170.597 10.332 170.25 10.332C169.401 10.332 168.716 10.5747 168.196 11.06C167.693 11.5453 167.442 12.3167 167.442 13.374V15.74L167.104 15.376H171.082L171.03 16.832H167.182L167.442 16.546V27.674L167.182 27.388L169.912 27.882V29H163.334ZM198.482 11.97L195.882 12.568L196.22 11.996V27.804L195.882 27.336L198.482 27.882V29H192.008V27.882L194.66 27.336L194.244 27.804V13.218L194.582 13.244L188.68 24.268L187.25 24.372L181.53 13.192L181.842 13.166V27.804L181.53 27.362L184.104 27.882V29H177.838V27.882L180.438 27.336L180.074 27.804V11.996L180.438 12.568L177.838 12.1V10.982L182.7 10.852L188.342 22.266H188.03L193.854 10.982L198.482 10.852V11.97ZM210.963 27.83L210.625 27.362L213.017 27.83V28.974L209.377 29.13L209.065 26.634L209.247 26.712C208.484 27.544 207.661 28.1767 206.777 28.61C205.893 29.026 205.035 29.234 204.203 29.234C203.197 29.234 202.348 28.9133 201.655 28.272C200.961 27.6307 200.615 26.66 200.615 25.36C200.615 24.3373 200.831 23.5573 201.265 23.02C201.698 22.4653 202.296 22.0753 203.059 21.85C203.821 21.6247 204.705 21.512 205.711 21.512H209.117L208.883 21.772V19.276C208.883 18.3227 208.631 17.6467 208.129 17.248C207.626 16.832 206.933 16.624 206.049 16.624C205.581 16.624 205.078 16.676 204.541 16.78C204.021 16.8667 203.466 17.014 202.877 17.222L203.189 16.884L202.929 19.25H201.551L201.343 16.026C202.331 15.6967 203.258 15.454 204.125 15.298C204.991 15.1247 205.789 15.038 206.517 15.038C207.903 15.038 208.987 15.35 209.767 15.974C210.564 16.5807 210.963 17.56 210.963 18.912V27.83ZM202.721 25.178C202.721 26.0273 202.92 26.6513 203.319 27.05C203.735 27.4487 204.255 27.648 204.879 27.648C205.485 27.648 206.153 27.466 206.881 27.102C207.626 26.7207 208.345 26.2093 209.039 25.568L208.883 26.114V22.63L209.117 22.864H206.023C204.792 22.864 203.934 23.0547 203.449 23.436C202.963 23.8 202.721 24.3807 202.721 25.178ZM213.11 35.084L213.292 33.55C213.5 33.5847 213.691 33.6107 213.864 33.628C214.055 33.6453 214.228 33.654 214.384 33.654C215.234 33.654 215.918 33.4547 216.438 33.056C216.976 32.6747 217.426 32.094 217.79 31.314C218.154 30.534 218.527 29.5633 218.908 28.402L218.83 29.182L213.968 16.52L214.254 16.754L212.564 16.468V15.35L218.258 15.168V16.312L215.918 16.702L216.074 16.468L219.948 27.518L219.48 27.414L223.198 16.52L223.354 16.754L221.066 16.468V15.35L226.578 15.168V16.312L224.758 16.728L225.122 16.494L220.546 29.052C220.234 29.9187 219.905 30.7247 219.558 31.47C219.229 32.2153 218.848 32.8653 218.414 33.42C217.981 33.992 217.452 34.434 216.828 34.746C216.204 35.058 215.45 35.214 214.566 35.214C214.168 35.214 213.682 35.1707 213.11 35.084ZM233.542 15.038C235.449 15.038 236.94 15.636 238.014 16.832C239.106 18.028 239.652 19.718 239.652 21.902C239.652 23.3753 239.384 24.6667 238.846 25.776C238.326 26.868 237.581 27.7173 236.61 28.324C235.64 28.9307 234.47 29.234 233.1 29.234C231.228 29.234 229.764 28.6533 228.706 27.492C227.649 26.3133 227.12 24.6233 227.12 22.422C227.12 20.8967 227.372 19.588 227.874 18.496C228.394 17.3867 229.131 16.5373 230.084 15.948C231.055 15.3413 232.208 15.038 233.542 15.038ZM233.438 16.572C232.104 16.572 231.081 17.0747 230.37 18.08C229.66 19.0853 229.304 20.498 229.304 22.318C229.304 24.1033 229.642 25.4467 230.318 26.348C230.994 27.2493 231.965 27.7 233.23 27.7C234.149 27.7 234.92 27.4747 235.544 27.024C236.186 26.556 236.662 25.8973 236.974 25.048C237.304 24.1987 237.468 23.1847 237.468 22.006C237.468 20.238 237.113 18.8947 236.402 17.976C235.709 17.04 234.721 16.572 233.438 16.572ZM241.841 29V27.882L244.129 27.388L243.869 27.778V16.572L244.155 16.962L241.841 16.468V15.35L245.481 15.168L245.767 17.716L245.481 17.612C246.261 16.7973 247.024 16.1647 247.769 15.714C248.515 15.2633 249.329 15.038 250.213 15.038C250.768 15.038 251.349 15.1247 251.955 15.298L251.799 18.938H250.499L250.187 16.364L250.421 16.832C250.3 16.7973 250.17 16.7713 250.031 16.754C249.893 16.7367 249.754 16.728 249.615 16.728C248.922 16.728 248.246 16.936 247.587 17.352C246.946 17.768 246.331 18.3053 245.741 18.964L245.949 18.34V27.778L245.637 27.388L248.471 27.882V29H241.841ZM260.905 15.35L266.339 15.168V16.312L264.571 16.832L264.935 16.442L260.411 29.052H257.967L253.833 16.494L254.197 16.832L252.403 16.468V15.35L258.123 15.168V16.312L255.757 16.754L255.965 16.442L259.449 27.726H259.241L263.011 16.52L263.167 16.754L260.905 16.468V15.35ZM271.162 27.674L270.928 27.388L273.19 27.882V29H267.054V27.882L269.316 27.388L269.082 27.674V16.702L269.29 16.936L267.054 16.468V15.35L271.162 15.194V27.674ZM269.966 12.386C269.567 12.386 269.238 12.256 268.978 11.996C268.718 11.736 268.588 11.3807 268.588 10.93C268.588 10.462 268.718 10.1067 268.978 9.864C269.255 9.604 269.593 9.474 269.992 9.474C270.408 9.474 270.746 9.59533 271.006 9.838C271.266 10.0807 271.396 10.4447 271.396 10.93C271.396 11.398 271.257 11.762 270.98 12.022C270.703 12.2647 270.365 12.386 269.966 12.386ZM278.594 27.674L278.386 27.388L280.648 27.882V29H274.486V27.882L276.748 27.388L276.514 27.674V10.462L276.722 10.696L274.486 10.228V9.11L278.594 8.928V27.674ZM286.085 27.674L285.877 27.388L288.139 27.882V29H281.977V27.882L284.239 27.388L284.005 27.674V10.462L284.213 10.696L281.977 10.228V9.11L286.085 8.928V27.674ZM295.967 29.234C294.805 29.234 293.774 28.974 292.873 28.454C291.989 27.9167 291.295 27.1367 290.793 26.114C290.29 25.0913 290.039 23.8433 290.039 22.37C290.039 20.862 290.299 19.562 290.819 18.47C291.339 17.378 292.075 16.5373 293.029 15.948C293.982 15.3413 295.1 15.038 296.383 15.038C297.596 15.038 298.593 15.298 299.373 15.818C300.17 16.3207 300.759 17.0227 301.141 17.924C301.539 18.8253 301.739 19.8567 301.739 21.018C301.739 21.2087 301.73 21.3993 301.713 21.59C301.695 21.7807 301.669 22.0147 301.635 22.292H291.625V20.81H299.815L299.581 20.966C299.598 20.186 299.503 19.4667 299.295 18.808C299.087 18.1493 298.731 17.6207 298.229 17.222C297.726 16.8233 297.059 16.624 296.227 16.624C295.343 16.624 294.597 16.858 293.991 17.326C293.384 17.794 292.933 18.4353 292.639 19.25C292.344 20.0647 292.197 21.0093 292.197 22.084C292.197 23.228 292.361 24.216 292.691 25.048C293.02 25.8627 293.497 26.4953 294.121 26.946C294.762 27.3967 295.542 27.622 296.461 27.622C297.102 27.622 297.804 27.5007 298.567 27.258C299.329 26.998 300.118 26.608 300.933 26.088L301.687 27.258C300.716 27.9167 299.745 28.4107 298.775 28.74C297.804 29.0693 296.868 29.234 295.967 29.234Z" fill="#26272C"/>
<path d="M101.914 46.719C101.862 46.8217 101.802 46.894 101.732 46.936C101.666 46.978 101.587 46.999 101.494 46.999C101.4 46.999 101.295 46.964 101.179 46.894C101.062 46.8193 100.924 46.7377 100.766 46.649C100.607 46.5603 100.42 46.481 100.206 46.411C99.9956 46.3363 99.7459 46.299 99.4566 46.299C99.1952 46.299 98.9666 46.3317 98.7706 46.397C98.5792 46.4577 98.4159 46.544 98.2806 46.656C98.1499 46.768 98.0519 46.9033 97.9866 47.062C97.9212 47.216 97.8886 47.3863 97.8886 47.573C97.8886 47.811 97.9539 48.0093 98.0846 48.168C98.2199 48.3267 98.3972 48.462 98.6166 48.574C98.8359 48.686 99.0856 48.7863 99.3656 48.875C99.6456 48.9637 99.9302 49.0593 100.22 49.162C100.514 49.26 100.801 49.3767 101.081 49.512C101.361 49.6427 101.61 49.8107 101.83 50.016C102.049 50.2167 102.224 50.464 102.355 50.758C102.49 51.052 102.558 51.409 102.558 51.829C102.558 52.2863 102.478 52.7157 102.32 53.117C102.166 53.5137 101.937 53.8613 101.634 54.16C101.335 54.454 100.969 54.6873 100.535 54.86C100.101 55.028 99.6036 55.112 99.0436 55.112C98.7216 55.112 98.4042 55.0793 98.0916 55.014C97.7789 54.9533 97.4779 54.8647 97.1886 54.748C96.9039 54.6313 96.6356 54.4913 96.3836 54.328C96.1362 54.1647 95.9146 53.9827 95.7186 53.782L96.2646 52.879C96.3159 52.8137 96.3766 52.76 96.4466 52.718C96.5212 52.6713 96.6029 52.648 96.6916 52.648C96.8082 52.648 96.9342 52.697 97.0696 52.795C97.2049 52.8883 97.3636 52.9933 97.5456 53.11C97.7322 53.2267 97.9492 53.334 98.1966 53.432C98.4486 53.5253 98.7496 53.572 99.0996 53.572C99.6362 53.572 100.052 53.446 100.346 53.194C100.64 52.9373 100.787 52.571 100.787 52.095C100.787 51.829 100.719 51.612 100.584 51.444C100.453 51.276 100.278 51.136 100.059 51.024C99.8392 50.9073 99.5896 50.8093 99.3096 50.73C99.0296 50.6507 98.7449 50.5643 98.4556 50.471C98.1662 50.3777 97.8816 50.2657 97.6016 50.135C97.3216 50.0043 97.0719 49.834 96.8526 49.624C96.6332 49.414 96.4559 49.1527 96.3206 48.84C96.1899 48.5227 96.1246 48.133 96.1246 47.671C96.1246 47.3023 96.1969 46.943 96.3416 46.593C96.4909 46.243 96.7056 45.9327 96.9856 45.662C97.2702 45.3913 97.6179 45.1743 98.0286 45.011C98.4392 44.8477 98.9082 44.766 99.4356 44.766C100.033 44.766 100.584 44.8593 101.088 45.046C101.592 45.2327 102.021 45.494 102.376 45.83L101.914 46.719ZM103.896 55V47.818H104.953C105.177 47.818 105.324 47.923 105.394 48.133L105.506 48.665C105.632 48.525 105.763 48.3967 105.898 48.28C106.038 48.1633 106.185 48.063 106.339 47.979C106.498 47.895 106.666 47.8297 106.843 47.783C107.025 47.7317 107.224 47.706 107.438 47.706C107.891 47.706 108.262 47.8297 108.551 48.077C108.845 48.3197 109.065 48.644 109.209 49.05C109.321 48.812 109.461 48.609 109.629 48.441C109.797 48.2683 109.982 48.1283 110.182 48.021C110.383 47.9137 110.595 47.8343 110.819 47.783C111.048 47.7317 111.277 47.706 111.505 47.706C111.902 47.706 112.254 47.7667 112.562 47.888C112.87 48.0093 113.129 48.1867 113.339 48.42C113.549 48.6533 113.708 48.938 113.815 49.274C113.927 49.61 113.983 49.995 113.983 50.429V55H112.254V50.429C112.254 49.9717 112.154 49.6287 111.953 49.4C111.753 49.1667 111.459 49.05 111.071 49.05C110.894 49.05 110.728 49.0803 110.574 49.141C110.425 49.2017 110.292 49.2903 110.175 49.407C110.063 49.519 109.975 49.6613 109.909 49.834C109.844 50.0067 109.811 50.205 109.811 50.429V55H108.075V50.429C108.075 49.9483 107.977 49.5983 107.781 49.379C107.59 49.1597 107.305 49.05 106.927 49.05C106.68 49.05 106.447 49.113 106.227 49.239C106.013 49.3603 105.812 49.5283 105.625 49.743V55H103.896ZM121.31 55H120.533C120.369 55 120.241 54.9767 120.148 54.93C120.054 54.8787 119.984 54.7783 119.938 54.629L119.784 54.118C119.602 54.2813 119.422 54.426 119.245 54.552C119.072 54.6733 118.892 54.776 118.706 54.86C118.519 54.944 118.321 55.007 118.111 55.049C117.901 55.091 117.667 55.112 117.411 55.112C117.107 55.112 116.827 55.0723 116.571 54.993C116.314 54.909 116.092 54.7853 115.906 54.622C115.724 54.4587 115.581 54.2557 115.479 54.013C115.376 53.7703 115.325 53.488 115.325 53.166C115.325 52.8953 115.395 52.6293 115.535 52.368C115.679 52.102 115.917 51.864 116.249 51.654C116.58 51.4393 117.021 51.262 117.572 51.122C118.122 50.982 118.806 50.9027 119.623 50.884V50.464C119.623 49.9833 119.52 49.6287 119.315 49.4C119.114 49.1667 118.82 49.05 118.433 49.05C118.153 49.05 117.919 49.0827 117.733 49.148C117.546 49.2133 117.383 49.288 117.243 49.372C117.107 49.4513 116.981 49.5237 116.865 49.589C116.748 49.6543 116.62 49.687 116.48 49.687C116.363 49.687 116.263 49.6567 116.179 49.596C116.095 49.5353 116.027 49.4607 115.976 49.372L115.661 48.819C116.487 48.063 117.483 47.685 118.65 47.685C119.07 47.685 119.443 47.755 119.77 47.895C120.101 48.0303 120.381 48.2217 120.61 48.469C120.838 48.7117 121.011 49.0033 121.128 49.344C121.249 49.6847 121.31 50.058 121.31 50.464V55ZM117.95 53.922C118.127 53.922 118.29 53.9057 118.44 53.873C118.589 53.8403 118.729 53.7913 118.86 53.726C118.995 53.6607 119.123 53.5813 119.245 53.488C119.371 53.39 119.497 53.2757 119.623 53.145V51.934C119.119 51.9573 118.696 52.0017 118.356 52.067C118.02 52.1277 117.749 52.207 117.544 52.305C117.338 52.403 117.191 52.5173 117.103 52.648C117.019 52.7787 116.977 52.921 116.977 53.075C116.977 53.3783 117.065 53.5953 117.243 53.726C117.425 53.8567 117.66 53.922 117.95 53.922ZM123.01 55V47.818H124.025C124.202 47.818 124.326 47.8507 124.396 47.916C124.466 47.9813 124.512 48.0933 124.536 48.252L124.641 49.12C124.897 48.6767 125.198 48.3267 125.544 48.07C125.889 47.8133 126.276 47.685 126.706 47.685C127.06 47.685 127.354 47.7667 127.588 47.93L127.364 49.225C127.35 49.309 127.319 49.3697 127.273 49.407C127.226 49.4397 127.163 49.456 127.084 49.456C127.014 49.456 126.918 49.4397 126.797 49.407C126.675 49.3743 126.514 49.358 126.314 49.358C125.954 49.358 125.646 49.4583 125.39 49.659C125.133 49.855 124.916 50.1443 124.739 50.527V55H123.01ZM131.084 55.112C130.463 55.112 129.985 54.937 129.649 54.587C129.313 54.2323 129.145 53.7447 129.145 53.124V49.113H128.417C128.323 49.113 128.242 49.0827 128.172 49.022C128.106 48.9613 128.074 48.8703 128.074 48.749V48.063L129.229 47.874L129.593 45.914C129.611 45.8207 129.653 45.7483 129.719 45.697C129.789 45.6457 129.875 45.62 129.978 45.62H130.874V47.881H132.764V49.113H130.874V53.005C130.874 53.229 130.93 53.404 131.042 53.53C131.154 53.656 131.303 53.719 131.49 53.719C131.597 53.719 131.686 53.7073 131.756 53.684C131.83 53.656 131.893 53.628 131.945 53.6C132.001 53.572 132.05 53.5463 132.092 53.523C132.134 53.495 132.176 53.481 132.218 53.481C132.269 53.481 132.311 53.495 132.344 53.523C132.376 53.5463 132.411 53.5837 132.449 53.635L132.967 54.475C132.715 54.685 132.425 54.8437 132.099 54.951C131.772 55.0583 131.434 55.112 131.084 55.112ZM140.563 44.766C140.973 44.766 141.34 44.829 141.662 44.955C141.988 45.081 142.266 45.249 142.495 45.459C142.728 45.669 142.91 45.9093 143.041 46.18C143.176 46.4507 143.255 46.7307 143.279 47.02L142.18 47.251C142.166 47.2557 142.149 47.258 142.131 47.258C142.117 47.258 142.103 47.258 142.089 47.258C142.009 47.258 141.937 47.237 141.872 47.195C141.811 47.1483 141.762 47.0783 141.725 46.985C141.683 46.8637 141.629 46.7493 141.564 46.642C141.498 46.53 141.419 46.4343 141.326 46.355C141.232 46.271 141.123 46.2057 140.997 46.159C140.871 46.1077 140.726 46.082 140.563 46.082C140.367 46.082 140.192 46.117 140.038 46.187C139.884 46.2523 139.753 46.3433 139.646 46.46C139.538 46.572 139.457 46.705 139.401 46.859C139.345 47.0083 139.317 47.167 139.317 47.335C139.317 47.475 139.331 47.6103 139.359 47.741C139.391 47.8717 139.44 48.0023 139.506 48.133C139.571 48.2637 139.655 48.399 139.758 48.539C139.865 48.6743 139.996 48.8213 140.15 48.98L142.838 51.773C142.992 51.479 143.115 51.1687 143.209 50.842C143.302 50.5153 143.363 50.184 143.391 49.848C143.4 49.7407 143.435 49.6543 143.496 49.589C143.556 49.5237 143.64 49.491 143.748 49.491H144.833C144.828 50.107 144.739 50.695 144.567 51.255C144.394 51.815 144.147 52.3307 143.825 52.802L145.946 55H144.252C144.163 55 144.084 54.9953 144.014 54.986C143.948 54.9767 143.885 54.9603 143.825 54.937C143.764 54.909 143.706 54.874 143.65 54.832C143.594 54.79 143.535 54.7363 143.475 54.671L142.775 53.95C142.327 54.314 141.827 54.5987 141.277 54.804C140.731 55.0093 140.138 55.112 139.499 55.112C139.107 55.112 138.724 55.0467 138.351 54.916C137.977 54.7807 137.644 54.587 137.35 54.335C137.056 54.083 136.818 53.7797 136.636 53.425C136.458 53.0657 136.37 52.662 136.37 52.214C136.37 51.9013 136.421 51.605 136.524 51.325C136.626 51.0403 136.769 50.7767 136.951 50.534C137.133 50.2913 137.347 50.072 137.595 49.876C137.847 49.68 138.122 49.512 138.421 49.372C138.173 49.022 137.991 48.6813 137.875 48.35C137.763 48.014 137.707 47.6803 137.707 47.349C137.707 46.999 137.77 46.6677 137.896 46.355C138.026 46.0377 138.213 45.7623 138.456 45.529C138.703 45.2957 139.004 45.1113 139.359 44.976C139.713 44.836 140.115 44.766 140.563 44.766ZM138.127 52.074C138.127 52.3307 138.171 52.5617 138.26 52.767C138.348 52.9723 138.47 53.1473 138.624 53.292C138.778 53.432 138.955 53.5417 139.156 53.621C139.361 53.6957 139.578 53.733 139.807 53.733C140.217 53.733 140.591 53.67 140.927 53.544C141.267 53.4133 141.578 53.2337 141.858 53.005L139.198 50.275C138.824 50.5177 138.551 50.7907 138.379 51.094C138.211 51.3973 138.127 51.724 138.127 52.074ZM156.029 44.878V46.376H151.542V49.183H155.077V50.632H151.542V53.495H156.029V55H149.645V44.878H156.029ZM157.867 55V49.12L157.244 49.022C157.108 48.9987 156.999 48.952 156.915 48.882C156.835 48.812 156.796 48.714 156.796 48.588V47.881H157.867V47.349C157.867 46.9383 157.927 46.5697 158.049 46.243C158.175 45.9163 158.352 45.6387 158.581 45.41C158.814 45.1813 159.096 45.0063 159.428 44.885C159.759 44.7637 160.132 44.703 160.548 44.703C160.879 44.703 161.187 44.7473 161.472 44.836L161.437 45.704C161.427 45.8393 161.364 45.9233 161.248 45.956C161.131 45.9887 160.996 46.005 160.842 46.005C160.636 46.005 160.452 46.0283 160.289 46.075C160.13 46.117 159.995 46.194 159.883 46.306C159.771 46.4133 159.684 46.558 159.624 46.74C159.568 46.9173 159.54 47.139 159.54 47.405V47.881H161.409V49.113H159.596V55H157.867ZM162.775 55V49.12L162.152 49.022C162.016 48.9987 161.907 48.952 161.823 48.882C161.743 48.812 161.704 48.714 161.704 48.588V47.881H162.775V47.65C162.775 47.2113 162.847 46.8053 162.992 46.432C163.136 46.054 163.356 45.7273 163.65 45.452C163.944 45.1767 164.315 44.962 164.763 44.808C165.211 44.6493 165.74 44.57 166.352 44.57C166.548 44.57 166.748 44.5817 166.954 44.605C167.159 44.6237 167.336 44.6563 167.486 44.703L167.43 45.599C167.42 45.7063 167.362 45.7717 167.255 45.795C167.147 45.8137 167.014 45.823 166.856 45.823C166.403 45.823 166.023 45.8627 165.715 45.942C165.411 46.0213 165.164 46.1403 164.973 46.299C164.786 46.453 164.651 46.649 164.567 46.887C164.487 47.1203 164.448 47.3933 164.448 47.706V47.881H168.9V55H167.171V49.113H164.504V55H162.775ZM175.922 49.337C175.871 49.4023 175.819 49.4537 175.768 49.491C175.721 49.5283 175.651 49.547 175.558 49.547C175.469 49.547 175.383 49.5213 175.299 49.47C175.215 49.414 175.115 49.3533 174.998 49.288C174.881 49.218 174.741 49.1573 174.578 49.106C174.419 49.05 174.221 49.022 173.983 49.022C173.68 49.022 173.414 49.078 173.185 49.19C172.956 49.2973 172.765 49.4537 172.611 49.659C172.462 49.8643 172.35 50.114 172.275 50.408C172.2 50.6973 172.163 51.0263 172.163 51.395C172.163 51.7777 172.203 52.1183 172.282 52.417C172.366 52.7157 172.485 52.9677 172.639 53.173C172.793 53.3737 172.98 53.5277 173.199 53.635C173.418 53.7377 173.666 53.789 173.941 53.789C174.216 53.789 174.438 53.7563 174.606 53.691C174.779 53.621 174.923 53.5463 175.04 53.467C175.157 53.383 175.257 53.3083 175.341 53.243C175.43 53.173 175.528 53.138 175.635 53.138C175.775 53.138 175.88 53.1917 175.95 53.299L176.447 53.929C176.256 54.153 176.048 54.342 175.824 54.496C175.6 54.6453 175.367 54.7667 175.124 54.86C174.886 54.9487 174.639 55.0117 174.382 55.049C174.125 55.0863 173.871 55.105 173.619 55.105C173.176 55.105 172.758 55.0233 172.366 54.86C171.974 54.692 171.631 54.4493 171.337 54.132C171.048 53.8147 170.817 53.4273 170.644 52.97C170.476 52.508 170.392 51.983 170.392 51.395C170.392 50.8677 170.467 50.38 170.616 49.932C170.77 49.4793 170.994 49.0897 171.288 48.763C171.582 48.4317 171.946 48.1727 172.38 47.986C172.814 47.7993 173.313 47.706 173.878 47.706C174.415 47.706 174.884 47.7923 175.285 47.965C175.691 48.1377 176.055 48.385 176.377 48.707L175.922 49.337ZM179.388 47.818V55H177.659V47.818H179.388ZM179.647 45.725C179.647 45.8743 179.616 46.0143 179.556 46.145C179.495 46.2757 179.413 46.39 179.311 46.488C179.213 46.586 179.096 46.6653 178.961 46.726C178.825 46.782 178.681 46.81 178.527 46.81C178.377 46.81 178.235 46.782 178.1 46.726C177.969 46.6653 177.855 46.586 177.757 46.488C177.659 46.39 177.579 46.2757 177.519 46.145C177.463 46.0143 177.435 45.8743 177.435 45.725C177.435 45.571 177.463 45.4263 177.519 45.291C177.579 45.1557 177.659 45.039 177.757 44.941C177.855 44.843 177.969 44.766 178.1 44.71C178.235 44.6493 178.377 44.619 178.527 44.619C178.681 44.619 178.825 44.6493 178.961 44.71C179.096 44.766 179.213 44.843 179.311 44.941C179.413 45.039 179.495 45.1557 179.556 45.291C179.616 45.4263 179.647 45.571 179.647 45.725ZM184.316 47.706C184.768 47.706 185.184 47.7783 185.562 47.923C185.944 48.0677 186.273 48.28 186.549 48.56C186.824 48.8353 187.039 49.176 187.193 49.582C187.347 49.9833 187.424 50.443 187.424 50.961C187.424 51.0917 187.417 51.2013 187.403 51.29C187.393 51.374 187.372 51.4417 187.34 51.493C187.312 51.5397 187.272 51.5747 187.221 51.598C187.169 51.6167 187.104 51.626 187.025 51.626H182.587C182.638 52.3633 182.836 52.9047 183.182 53.25C183.527 53.5953 183.984 53.768 184.554 53.768C184.834 53.768 185.074 53.7353 185.275 53.67C185.48 53.6047 185.657 53.5323 185.807 53.453C185.961 53.3737 186.094 53.3013 186.206 53.236C186.322 53.1707 186.434 53.138 186.542 53.138C186.612 53.138 186.672 53.152 186.724 53.18C186.775 53.208 186.819 53.2477 186.857 53.299L187.361 53.929C187.169 54.153 186.955 54.342 186.717 54.496C186.479 54.6453 186.229 54.7667 185.968 54.86C185.711 54.9487 185.447 55.0117 185.177 55.049C184.911 55.0863 184.652 55.105 184.4 55.105C183.9 55.105 183.436 55.0233 183.007 54.86C182.577 54.692 182.204 54.447 181.887 54.125C181.569 53.7983 181.32 53.397 181.138 52.921C180.956 52.4403 180.865 51.885 180.865 51.255C180.865 50.765 180.944 50.3053 181.103 49.876C181.261 49.442 181.488 49.0663 181.782 48.749C182.08 48.427 182.442 48.1727 182.867 47.986C183.296 47.7993 183.779 47.706 184.316 47.706ZM184.351 48.945C183.847 48.945 183.452 49.0873 183.168 49.372C182.883 49.6567 182.701 50.0603 182.622 50.583H185.87C185.87 50.359 185.839 50.149 185.779 49.953C185.718 49.7523 185.625 49.5773 185.499 49.428C185.373 49.2787 185.214 49.162 185.023 49.078C184.831 48.9893 184.607 48.945 184.351 48.945ZM188.826 55V47.818H189.883C190.107 47.818 190.254 47.923 190.324 48.133L190.443 48.7C190.588 48.5507 190.739 48.4153 190.898 48.294C191.061 48.1727 191.232 48.0677 191.409 47.979C191.591 47.8903 191.785 47.8227 191.99 47.776C192.195 47.7293 192.419 47.706 192.662 47.706C193.054 47.706 193.402 47.7737 193.705 47.909C194.008 48.0397 194.26 48.2263 194.461 48.469C194.666 48.707 194.82 48.994 194.923 49.33C195.03 49.6613 195.084 50.0277 195.084 50.429V55H193.355V50.429C193.355 49.9903 193.252 49.652 193.047 49.414C192.846 49.1713 192.543 49.05 192.137 49.05C191.838 49.05 191.558 49.1177 191.297 49.253C191.036 49.3883 190.788 49.5727 190.555 49.806V55H188.826ZM199.142 55.112C198.521 55.112 198.043 54.937 197.707 54.587C197.371 54.2323 197.203 53.7447 197.203 53.124V49.113H196.475C196.382 49.113 196.3 49.0827 196.23 49.022C196.165 48.9613 196.132 48.8703 196.132 48.749V48.063L197.287 47.874L197.651 45.914C197.67 45.8207 197.712 45.7483 197.777 45.697C197.847 45.6457 197.933 45.62 198.036 45.62H198.932V47.881H200.822V49.113H198.932V53.005C198.932 53.229 198.988 53.404 199.1 53.53C199.212 53.656 199.361 53.719 199.548 53.719C199.655 53.719 199.744 53.7073 199.814 53.684C199.889 53.656 199.952 53.628 200.003 53.6C200.059 53.572 200.108 53.5463 200.15 53.523C200.192 53.495 200.234 53.481 200.276 53.481C200.327 53.481 200.369 53.495 200.402 53.523C200.435 53.5463 200.47 53.5837 200.507 53.635L201.025 54.475C200.773 54.685 200.484 54.8437 200.157 54.951C199.83 55.0583 199.492 55.112 199.142 55.112ZM211.96 52.613C212.063 52.613 212.152 52.6527 212.226 52.732L212.968 53.537C212.558 54.0457 212.051 54.4353 211.449 54.706C210.852 54.9767 210.133 55.112 209.293 55.112C208.542 55.112 207.865 54.9837 207.263 54.727C206.666 54.4703 206.155 54.1133 205.73 53.656C205.306 53.1987 204.979 52.6527 204.75 52.018C204.526 51.3833 204.414 50.6903 204.414 49.939C204.414 49.1783 204.54 48.483 204.792 47.853C205.044 47.2183 205.399 46.6723 205.856 46.215C206.314 45.7577 206.86 45.403 207.494 45.151C208.134 44.8943 208.838 44.766 209.608 44.766C210.36 44.766 211.015 44.8873 211.575 45.13C212.14 45.368 212.623 45.6853 213.024 46.082L212.394 46.957C212.357 47.013 212.308 47.062 212.247 47.104C212.191 47.146 212.112 47.167 212.009 47.167C211.902 47.167 211.792 47.125 211.68 47.041C211.568 46.957 211.426 46.866 211.253 46.768C211.081 46.67 210.861 46.579 210.595 46.495C210.334 46.411 210 46.369 209.594 46.369C209.118 46.369 208.68 46.453 208.278 46.621C207.882 46.7843 207.539 47.02 207.249 47.328C206.965 47.636 206.741 48.0117 206.577 48.455C206.419 48.8937 206.339 49.3883 206.339 49.939C206.339 50.5083 206.419 51.0147 206.577 51.458C206.741 51.9013 206.96 52.2747 207.235 52.578C207.511 52.8813 207.835 53.1147 208.208 53.278C208.582 53.4367 208.983 53.516 209.412 53.516C209.669 53.516 209.9 53.502 210.105 53.474C210.315 53.446 210.507 53.4017 210.679 53.341C210.857 53.2803 211.022 53.2033 211.176 53.11C211.335 53.012 211.491 52.893 211.645 52.753C211.692 52.711 211.741 52.6783 211.792 52.655C211.844 52.627 211.9 52.613 211.96 52.613ZM216.138 47.818V55H214.409V47.818H216.138ZM216.397 45.725C216.397 45.8743 216.366 46.0143 216.306 46.145C216.245 46.2757 216.163 46.39 216.061 46.488C215.963 46.586 215.846 46.6653 215.711 46.726C215.575 46.782 215.431 46.81 215.277 46.81C215.127 46.81 214.985 46.782 214.85 46.726C214.719 46.6653 214.605 46.586 214.507 46.488C214.409 46.39 214.329 46.2757 214.269 46.145C214.213 46.0143 214.185 45.8743 214.185 45.725C214.185 45.571 214.213 45.4263 214.269 45.291C214.329 45.1557 214.409 45.039 214.507 44.941C214.605 44.843 214.719 44.766 214.85 44.71C214.985 44.6493 215.127 44.619 215.277 44.619C215.431 44.619 215.575 44.6493 215.711 44.71C215.846 44.766 215.963 44.843 216.061 44.941C216.163 45.039 216.245 45.1557 216.306 45.291C216.366 45.4263 216.397 45.571 216.397 45.725ZM220.457 55.112C219.836 55.112 219.358 54.937 219.022 54.587C218.686 54.2323 218.518 53.7447 218.518 53.124V49.113H217.79C217.696 49.113 217.615 49.0827 217.545 49.022C217.479 48.9613 217.447 48.8703 217.447 48.749V48.063L218.602 47.874L218.966 45.914C218.984 45.8207 219.026 45.7483 219.092 45.697C219.162 45.6457 219.248 45.62 219.351 45.62H220.247V47.881H222.137V49.113H220.247V53.005C220.247 53.229 220.303 53.404 220.415 53.53C220.527 53.656 220.676 53.719 220.863 53.719C220.97 53.719 221.059 53.7073 221.129 53.684C221.203 53.656 221.266 53.628 221.318 53.6C221.374 53.572 221.423 53.5463 221.465 53.523C221.507 53.495 221.549 53.481 221.591 53.481C221.642 53.481 221.684 53.495 221.717 53.523C221.749 53.5463 221.784 53.5837 221.822 53.635L222.34 54.475C222.088 54.685 221.798 54.8437 221.472 54.951C221.145 55.0583 220.807 55.112 220.457 55.112ZM226.06 56.974C226.008 57.0953 225.941 57.1863 225.857 57.247C225.777 57.3123 225.654 57.345 225.486 57.345H224.198L225.542 54.468L222.637 47.818H224.149C224.289 47.818 224.396 47.8507 224.471 47.916C224.545 47.9813 224.601 48.056 224.639 48.14L226.172 51.864C226.223 51.9853 226.267 52.1113 226.305 52.242C226.342 52.3727 226.375 52.5033 226.403 52.634C226.44 52.4987 226.48 52.368 226.522 52.242C226.568 52.116 226.617 51.9877 226.669 51.857L228.111 48.14C228.148 48.0467 228.209 47.9697 228.293 47.909C228.381 47.8483 228.479 47.818 228.587 47.818H229.973L226.06 56.974ZM235.728 51.437V55H233.845V44.878H237.142C237.818 44.878 238.404 44.9573 238.899 45.116C239.393 45.2747 239.802 45.4963 240.124 45.781C240.446 46.0657 240.684 46.4063 240.838 46.803C240.992 47.1997 241.069 47.6337 241.069 48.105C241.069 48.595 240.987 49.0453 240.824 49.456C240.66 49.862 240.415 50.212 240.089 50.506C239.762 50.8 239.354 51.0287 238.864 51.192C238.374 51.3553 237.8 51.437 237.142 51.437H235.728ZM235.728 49.967H237.142C237.487 49.967 237.788 49.925 238.045 49.841C238.301 49.7523 238.514 49.6287 238.682 49.47C238.85 49.3067 238.976 49.1107 239.06 48.882C239.144 48.6487 239.186 48.3897 239.186 48.105C239.186 47.8343 239.144 47.5893 239.06 47.37C238.976 47.1507 238.85 46.964 238.682 46.81C238.514 46.656 238.301 46.5393 238.045 46.46C237.788 46.376 237.487 46.334 237.142 46.334H235.728V49.967ZM244.275 44.598V55H242.546V44.598H244.275ZM251.862 55H251.085C250.922 55 250.794 54.9767 250.7 54.93C250.607 54.8787 250.537 54.7783 250.49 54.629L250.336 54.118C250.154 54.2813 249.975 54.426 249.797 54.552C249.625 54.6733 249.445 54.776 249.258 54.86C249.072 54.944 248.873 55.007 248.663 55.049C248.453 55.091 248.22 55.112 247.963 55.112C247.66 55.112 247.38 55.0723 247.123 54.993C246.867 54.909 246.645 54.7853 246.458 54.622C246.276 54.4587 246.134 54.2557 246.031 54.013C245.929 53.7703 245.877 53.488 245.877 53.166C245.877 52.8953 245.947 52.6293 246.087 52.368C246.232 52.102 246.47 51.864 246.801 51.654C247.133 51.4393 247.574 51.262 248.124 51.122C248.675 50.982 249.359 50.9027 250.175 50.884V50.464C250.175 49.9833 250.073 49.6287 249.867 49.4C249.667 49.1667 249.373 49.05 248.985 49.05C248.705 49.05 248.472 49.0827 248.285 49.148C248.099 49.2133 247.935 49.288 247.795 49.372C247.66 49.4513 247.534 49.5237 247.417 49.589C247.301 49.6543 247.172 49.687 247.032 49.687C246.916 49.687 246.815 49.6567 246.731 49.596C246.647 49.5353 246.58 49.4607 246.528 49.372L246.213 48.819C247.039 48.063 248.036 47.685 249.202 47.685C249.622 47.685 249.996 47.755 250.322 47.895C250.654 48.0303 250.934 48.2217 251.162 48.469C251.391 48.7117 251.564 49.0033 251.68 49.344C251.802 49.6847 251.862 50.058 251.862 50.464V55ZM248.502 53.922C248.68 53.922 248.843 53.9057 248.992 53.873C249.142 53.8403 249.282 53.7913 249.412 53.726C249.548 53.6607 249.676 53.5813 249.797 53.488C249.923 53.39 250.049 53.2757 250.175 53.145V51.934C249.671 51.9573 249.249 52.0017 248.908 52.067C248.572 52.1277 248.302 52.207 248.096 52.305C247.891 52.403 247.744 52.5173 247.655 52.648C247.571 52.7787 247.529 52.921 247.529 53.075C247.529 53.3783 247.618 53.5953 247.795 53.726C247.977 53.8567 248.213 53.922 248.502 53.922ZM253.562 55V47.818H254.619C254.843 47.818 254.99 47.923 255.06 48.133L255.179 48.7C255.324 48.5507 255.476 48.4153 255.634 48.294C255.798 48.1727 255.968 48.0677 256.145 47.979C256.327 47.8903 256.521 47.8227 256.726 47.776C256.932 47.7293 257.156 47.706 257.398 47.706C257.79 47.706 258.138 47.7737 258.441 47.909C258.745 48.0397 258.997 48.2263 259.197 48.469C259.403 48.707 259.557 48.994 259.659 49.33C259.767 49.6613 259.82 50.0277 259.82 50.429V55H258.091V50.429C258.091 49.9903 257.989 49.652 257.783 49.414C257.583 49.1713 257.279 49.05 256.873 49.05C256.575 49.05 256.295 49.1177 256.033 49.253C255.772 49.3883 255.525 49.5727 255.291 49.806V55H253.562ZM261.519 55V47.818H262.576C262.8 47.818 262.947 47.923 263.017 48.133L263.136 48.7C263.281 48.5507 263.433 48.4153 263.591 48.294C263.755 48.1727 263.925 48.0677 264.102 47.979C264.284 47.8903 264.478 47.8227 264.683 47.776C264.889 47.7293 265.113 47.706 265.355 47.706C265.747 47.706 266.095 47.7737 266.398 47.909C266.702 48.0397 266.954 48.2263 267.154 48.469C267.36 48.707 267.514 48.994 267.616 49.33C267.724 49.6613 267.777 50.0277 267.777 50.429V55H266.048V50.429C266.048 49.9903 265.946 49.652 265.74 49.414C265.54 49.1713 265.236 49.05 264.83 49.05C264.532 49.05 264.252 49.1177 263.99 49.253C263.729 49.3883 263.482 49.5727 263.248 49.806V55H261.519ZM271.317 47.818V55H269.588V47.818H271.317ZM271.576 45.725C271.576 45.8743 271.546 46.0143 271.485 46.145C271.425 46.2757 271.343 46.39 271.24 46.488C271.142 46.586 271.026 46.6653 270.89 46.726C270.755 46.782 270.61 46.81 270.456 46.81C270.307 46.81 270.165 46.782 270.029 46.726C269.899 46.6653 269.784 46.586 269.686 46.488C269.588 46.39 269.509 46.2757 269.448 46.145C269.392 46.0143 269.364 45.8743 269.364 45.725C269.364 45.571 269.392 45.4263 269.448 45.291C269.509 45.1557 269.588 45.039 269.686 44.941C269.784 44.843 269.899 44.766 270.029 44.71C270.165 44.6493 270.307 44.619 270.456 44.619C270.61 44.619 270.755 44.6493 270.89 44.71C271.026 44.766 271.142 44.843 271.24 44.941C271.343 45.039 271.425 45.1557 271.485 45.291C271.546 45.4263 271.576 45.571 271.576 45.725ZM273.277 55V47.818H274.334C274.558 47.818 274.705 47.923 274.775 48.133L274.894 48.7C275.039 48.5507 275.191 48.4153 275.349 48.294C275.513 48.1727 275.683 48.0677 275.86 47.979C276.042 47.8903 276.236 47.8227 276.441 47.776C276.647 47.7293 276.871 47.706 277.113 47.706C277.505 47.706 277.853 47.7737 278.156 47.909C278.46 48.0397 278.712 48.2263 278.912 48.469C279.118 48.707 279.272 48.994 279.374 49.33C279.482 49.6613 279.535 50.0277 279.535 50.429V55H277.806V50.429C277.806 49.9903 277.704 49.652 277.498 49.414C277.298 49.1713 276.994 49.05 276.588 49.05C276.29 49.05 276.01 49.1177 275.748 49.253C275.487 49.3883 275.24 49.5727 275.006 49.806V55H273.277ZM283.719 47.692C284.027 47.692 284.317 47.7247 284.587 47.79C284.858 47.8507 285.105 47.9417 285.329 48.063H287.394V48.707C287.394 48.8143 287.366 48.8983 287.31 48.959C287.254 49.0197 287.159 49.0617 287.023 49.085L286.379 49.204C286.426 49.3253 286.461 49.4537 286.484 49.589C286.512 49.7243 286.526 49.8667 286.526 50.016C286.526 50.3707 286.454 50.6927 286.309 50.982C286.169 51.2667 285.973 51.5093 285.721 51.71C285.474 51.9107 285.178 52.067 284.832 52.179C284.492 52.2863 284.121 52.34 283.719 52.34C283.449 52.34 283.185 52.3143 282.928 52.263C282.704 52.3983 282.592 52.55 282.592 52.718C282.592 52.8627 282.658 52.97 282.788 53.04C282.924 53.1053 283.099 53.152 283.313 53.18C283.533 53.208 283.78 53.2267 284.055 53.236C284.331 53.2407 284.613 53.2547 284.902 53.278C285.192 53.3013 285.474 53.3433 285.749 53.404C286.025 53.46 286.27 53.551 286.484 53.677C286.704 53.803 286.879 53.9757 287.009 54.195C287.145 54.4097 287.212 54.6873 287.212 55.028C287.212 55.3453 287.133 55.6533 286.974 55.952C286.82 56.2507 286.594 56.5167 286.295 56.75C286.001 56.9833 285.64 57.17 285.21 57.31C284.781 57.4547 284.291 57.527 283.74 57.527C283.194 57.527 282.721 57.4733 282.319 57.366C281.918 57.2633 281.584 57.1233 281.318 56.946C281.057 56.7733 280.861 56.5727 280.73 56.344C280.6 56.1153 280.534 55.8773 280.534 55.63C280.534 55.294 280.637 55.0117 280.842 54.783C281.048 54.5543 281.332 54.3723 281.696 54.237C281.519 54.139 281.377 54.0083 281.269 53.845C281.162 53.6817 281.108 53.4693 281.108 53.208C281.108 53.1007 281.127 52.991 281.164 52.879C281.202 52.7623 281.258 52.648 281.332 52.536C281.412 52.424 281.51 52.319 281.626 52.221C281.743 52.1183 281.881 52.0273 282.039 51.948C281.675 51.752 281.388 51.4907 281.178 51.164C280.973 50.8373 280.87 50.4547 280.87 50.016C280.87 49.6613 280.94 49.3417 281.08 49.057C281.225 48.7677 281.423 48.5227 281.675 48.322C281.932 48.1167 282.233 47.9603 282.578 47.853C282.928 47.7457 283.309 47.692 283.719 47.692ZM285.616 55.322C285.616 55.182 285.574 55.0677 285.49 54.979C285.406 54.8903 285.292 54.8227 285.147 54.776C285.003 54.7247 284.832 54.6873 284.636 54.664C284.445 54.6407 284.24 54.6243 284.02 54.615C283.806 54.601 283.582 54.5893 283.348 54.58C283.12 54.566 282.898 54.545 282.683 54.517C282.487 54.6243 282.329 54.7527 282.207 54.902C282.091 55.0467 282.032 55.2147 282.032 55.406C282.032 55.532 282.063 55.6487 282.123 55.756C282.189 55.868 282.289 55.9637 282.424 56.043C282.564 56.1223 282.744 56.183 282.963 56.225C283.183 56.2717 283.451 56.295 283.768 56.295C284.09 56.295 284.368 56.2693 284.601 56.218C284.835 56.1713 285.026 56.1037 285.175 56.015C285.329 55.931 285.441 55.8283 285.511 55.707C285.581 55.5903 285.616 55.462 285.616 55.322ZM283.719 51.234C283.934 51.234 284.121 51.206 284.279 51.15C284.438 51.0893 284.569 51.0077 284.671 50.905C284.779 50.8023 284.858 50.6787 284.909 50.534C284.965 50.3893 284.993 50.2307 284.993 50.058C284.993 49.7033 284.886 49.4233 284.671 49.218C284.461 49.008 284.144 48.903 283.719 48.903C283.295 48.903 282.975 49.008 282.76 49.218C282.55 49.4233 282.445 49.7033 282.445 50.058C282.445 50.226 282.471 50.3823 282.522 50.527C282.578 50.6717 282.658 50.7977 282.76 50.905C282.868 51.0077 283.001 51.0893 283.159 51.15C283.323 51.206 283.509 51.234 283.719 51.234Z" fill="#26272C"/>
</svg>
