<svg width="32" height="33" viewBox="0 0 32 33" fill="none" xmlns="http://www.w3.org/2000/svg">
<path d="M16.0022 3.90723C15.3889 3.90723 14.7622 3.96056 14.1355 4.09389C10.4555 4.80056 7.52221 7.77389 6.82888 11.4539C6.18888 14.9339 7.46888 18.1339 9.78888 20.2006C10.3622 20.7072 10.6689 21.4139 10.6689 22.1606V25.2406C10.6689 26.7072 11.8689 27.9072 13.3355 27.9072H13.7089C14.1755 28.7072 15.0155 29.2406 16.0022 29.2406C16.9889 29.2406 17.8422 28.7072 18.2955 27.9072H18.6689C20.1355 27.9072 21.3355 26.7072 21.3355 25.2406V22.1606C21.3355 21.4272 21.6289 20.7072 22.1889 20.2139C24.1222 18.5072 25.3355 16.0139 25.3355 13.2406C25.3355 8.08056 21.1622 3.90723 16.0022 3.90723ZM18.6689 22.5739H13.3355V21.2406H18.6689V22.5739ZM13.3355 25.2406V23.9072H18.6689V25.2406H13.3355ZM20.4155 18.2272C20.2955 18.3339 20.2022 18.4672 20.0955 18.5739H11.8955C11.7889 18.4539 11.6955 18.3206 11.5755 18.2139C9.81555 16.6406 9.02888 14.2939 9.45554 11.9472C9.93554 9.36056 12.0689 7.21389 14.6422 6.70723C15.0955 6.61389 15.5489 6.57389 16.0022 6.57389C19.6822 6.57389 22.6689 9.56056 22.6689 13.2406C22.6689 15.1472 21.8555 16.9606 20.4155 18.2272Z" fill="#6138F5"/>
<path d="M16.6689 14.5739H15.3355V18.5739H16.6689V14.5739Z" fill="#6138F5"/>
<path d="M13.8415 11.7389L12.8987 12.6817L15.7271 15.5101L16.6699 14.5673L13.8415 11.7389Z" fill="#6138F5"/>
<path d="M15.3369 14.5808L16.2797 15.5236L19.1081 12.6952L18.1653 11.7524L15.3369 14.5808Z" fill="#6138F5"/>
</svg>
