<svg width="24" height="25" viewBox="0 0 24 25" fill="none" xmlns="http://www.w3.org/2000/svg">
<path d="M20 16.4072C18.75 16.4072 17.55 16.2072 16.43 15.8372C16.08 15.7272 15.69 15.8072 15.41 16.0772L13.21 18.2772C10.38 16.8372 8.06 14.5272 6.62 11.6872L8.82 9.47723C9.1 9.21723 9.18 8.82723 9.07 8.47723C8.7 7.35723 8.5 6.15723 8.5 4.90723C8.5 4.35723 8.05 3.90723 7.5 3.90723H4C3.45 3.90723 3 4.35723 3 4.90723C3 14.2972 10.61 21.9072 20 21.9072C20.55 21.9072 21 21.4572 21 20.9072V17.4072C21 16.8572 20.55 16.4072 20 16.4072ZM21 6.90723H18V3.90723H16V6.90723H13V8.90723H16V11.9072H18V8.90723H21V6.90723Z" fill="#E0D8FD"/>
</svg>
