<svg width="56" height="50" viewBox="0 0 56 50" fill="none" xmlns="http://www.w3.org/2000/svg">
<path d="M48.823 22.4934C52.1364 20.6001 53.0835 14.9192 48.8235 8.76588C44.5634 2.61252 38.4103 2.13916 36.0436 4.50586C42.197 7.81922 46.4568 13.0259 48.823 22.4934Z" fill="url(#paint0_radial_1527_873)"/>
<path d="M7.17104 22.4934C3.85758 20.6001 2.91046 14.9192 7.17052 8.76588C11.4306 2.61252 17.5837 2.13916 19.9504 4.50586C13.797 7.81922 9.53724 13.0259 7.17104 22.4934Z" fill="url(#paint1_radial_1527_873)"/>
<path d="M27.997 48.0529C6.35815 48.0529 2.2568 33.0538 8.59017 16.8335C12.2958 7.34328 19.4657 2.61255 27.997 2.61255C36.5283 2.61255 43.6982 7.34328 47.4038 16.8335C53.7372 33.0538 49.6358 48.0529 27.997 48.0529Z" fill="url(#paint2_radial_1527_873)"/>
<g filter="url(#filter0_i_1527_873)">
<path fill-rule="evenodd" clip-rule="evenodd" d="M27.9964 11.1328C18.2936 11.1329 10.9564 18.638 9.06295 28.3015C7.16947 37.9649 9.82984 46.1597 27.9964 46.1598C46.1634 46.1598 48.8234 37.9649 46.9299 28.3015C45.0364 18.638 37.6993 11.1328 27.9964 11.1328Z" fill="url(#paint3_linear_1527_873)" style="mix-blend-mode:plus-lighter"/>
</g>
<g filter="url(#filter1_di_1527_873)">
<path fill-rule="evenodd" clip-rule="evenodd" d="M27.9976 7.34619C37.9952 7.34636 47.8777 16.6051 49.7711 28.173C51.8154 40.6639 48.6414 48.9998 27.9976 48.9999C7.35341 48.9999 4.17967 40.6643 6.22405 28.173C8.11738 16.6047 17.9998 7.34619 27.9976 7.34619ZM27.9966 11.1329C18.2938 11.133 10.9566 18.6381 9.06315 28.3015C7.16967 37.965 9.83004 46.1597 27.9966 46.1598C46.1636 46.1598 48.8236 37.965 46.9301 28.3015C45.0366 18.6381 37.6995 11.1329 27.9966 11.1329Z" fill="url(#paint4_linear_1527_873)"/>
</g>
<g filter="url(#filter2_i_1527_873)">
<path d="M27.9971 40.4794C24.2105 40.4794 23.2636 35.7461 23.2636 35.7461C23.2636 35.7461 25.1571 37.6394 27.9971 37.6394C30.837 37.6394 32.7304 35.7461 32.7304 35.7461C32.7304 35.7461 31.7837 40.4794 27.9971 40.4794Z" fill="#8D93A5"/>
</g>
<path d="M24.2103 35.2727C24.1708 35.2861 24.1342 35.2995 24.0959 35.3131C23.7562 35.4355 23.4771 35.5729 23.2203 35.7433C22.9625 35.9122 22.7077 36.124 22.4155 36.3393C22.383 36.3633 22.3504 36.3868 22.3169 36.4107C22.3286 36.3713 22.3408 36.3328 22.3542 36.2943C22.4722 35.952 22.6753 35.6236 23.0003 35.4092C23.3229 35.1919 23.7392 35.1408 24.0926 35.2372C24.1331 35.2475 24.1708 35.2594 24.2103 35.2727Z" fill="#26272C"/>
<path d="M31.7837 35.2727C31.8232 35.2861 31.8598 35.2995 31.8981 35.3131C32.2378 35.4355 32.5169 35.5729 32.7737 35.7433C33.0315 35.9122 33.2863 36.124 33.5785 36.3393C33.611 36.3633 33.6436 36.3868 33.677 36.4107C33.6653 36.3713 33.6532 36.3328 33.6398 36.2943C33.5217 35.952 33.3187 35.6236 32.9937 35.4092C32.6711 35.1919 32.2547 35.1408 31.9014 35.2372C31.8609 35.2475 31.8232 35.2594 31.7837 35.2727Z" fill="#26272C"/>
<ellipse cx="2.36669" cy="2.36669" rx="2.36669" ry="2.36669" transform="matrix(-1 0 0 1 39.3571 24.386)" fill="url(#paint5_radial_1527_873)"/>
<ellipse cx="19.0036" cy="26.7527" rx="2.36669" ry="2.36669" fill="url(#paint6_radial_1527_873)"/>
<g opacity="0.5" filter="url(#filter3_i_1527_873)">
<path fill-rule="evenodd" clip-rule="evenodd" d="M27.9964 11.1328C18.2936 11.1329 10.9564 18.638 9.06295 28.3015C7.16947 37.9649 9.82984 46.1597 27.9964 46.1598C46.1634 46.1598 48.8234 37.9649 46.9299 28.3015C45.0364 18.638 37.6993 11.1328 27.9964 11.1328Z" fill="url(#paint7_radial_1527_873)" style="mix-blend-mode:multiply"/>
</g>
<g opacity="0.8" filter="url(#filter4_f_1527_873)">
<path d="M38.8699 30.178C41.075 38.4077 38.8218 40.9717 41.1407 42.3104C42.9519 43.3561 46.8066 37.8521 44.3564 28.7079C41.9062 19.5637 36.7303 16.4794 35.6847 18.2906C34.3459 20.6095 36.6647 21.9483 38.8699 30.178Z" fill="url(#paint8_linear_1527_873)"/>
</g>
<g opacity="0.8" filter="url(#filter5_f_1527_873)">
<path d="M17.5917 26.7534C13.3317 34.132 14.8445 37.1918 12.2582 37.8848C10.2381 38.426 7.93925 32.1119 12.6726 23.9134C17.406 15.715 23.2038 14.0754 23.7451 16.0955C24.4381 18.6819 21.8517 19.3749 17.5917 26.7534Z" fill="url(#paint9_linear_1527_873)"/>
</g>
<defs>
<filter id="filter0_i_1527_873" x="8.54581" y="11.1328" width="38.9013" height="37.0269" filterUnits="userSpaceOnUse" color-interpolation-filters="sRGB">
<feFlood flood-opacity="0" result="BackgroundImageFix"/>
<feBlend mode="normal" in="SourceGraphic" in2="BackgroundImageFix" result="shape"/>
<feColorMatrix in="SourceAlpha" type="matrix" values="0 0 0 0 0 0 0 0 0 0 0 0 0 0 0 0 0 0 127 0" result="hardAlpha"/>
<feOffset dy="2"/>
<feGaussianBlur stdDeviation="2"/>
<feComposite in2="hardAlpha" operator="arithmetic" k2="-1" k3="1"/>
<feColorMatrix type="matrix" values="0 0 0 0 0 0 0 0 0 0 0 0 0 0 0 0 0 0 0.4 0"/>
<feBlend mode="normal" in2="shape" result="effect1_innerShadow_1527_873"/>
</filter>
<filter id="filter1_di_1527_873" x="4.6933" y="5.84619" width="46.6085" height="43.6536" filterUnits="userSpaceOnUse" color-interpolation-filters="sRGB">
<feFlood flood-opacity="0" result="BackgroundImageFix"/>
<feColorMatrix in="SourceAlpha" type="matrix" values="0 0 0 0 0 0 0 0 0 0 0 0 0 0 0 0 0 0 127 0" result="hardAlpha"/>
<feOffset dy="-0.5"/>
<feGaussianBlur stdDeviation="0.5"/>
<feComposite in2="hardAlpha" operator="out"/>
<feColorMatrix type="matrix" values="0 0 0 0 0 0 0 0 0 0 0 0 0 0 0 0 0 0 0.16 0"/>
<feBlend mode="normal" in2="BackgroundImageFix" result="effect1_dropShadow_1527_873"/>
<feBlend mode="normal" in="SourceGraphic" in2="effect1_dropShadow_1527_873" result="shape"/>
<feColorMatrix in="SourceAlpha" type="matrix" values="0 0 0 0 0 0 0 0 0 0 0 0 0 0 0 0 0 0 127 0" result="hardAlpha"/>
<feOffset/>
<feGaussianBlur stdDeviation="0.7"/>
<feComposite in2="hardAlpha" operator="arithmetic" k2="-1" k3="1"/>
<feColorMatrix type="matrix" values="0 0 0 0 0 0 0 0 0 0 0 0 0 0 0 0 0 0 0.4 0"/>
<feBlend mode="normal" in2="shape" result="effect2_innerShadow_1527_873"/>
</filter>
<filter id="filter2_i_1527_873" x="23.2636" y="35.7461" width="9.46674" height="5.7334" filterUnits="userSpaceOnUse" color-interpolation-filters="sRGB">
<feFlood flood-opacity="0" result="BackgroundImageFix"/>
<feBlend mode="normal" in="SourceGraphic" in2="BackgroundImageFix" result="shape"/>
<feColorMatrix in="SourceAlpha" type="matrix" values="0 0 0 0 0 0 0 0 0 0 0 0 0 0 0 0 0 0 127 0" result="hardAlpha"/>
<feOffset dy="1"/>
<feGaussianBlur stdDeviation="0.5"/>
<feComposite in2="hardAlpha" operator="arithmetic" k2="-1" k3="1"/>
<feColorMatrix type="matrix" values="0 0 0 0 0 0 0 0 0 0 0 0 0 0 0 0 0 0 0.64 0"/>
<feBlend mode="normal" in2="shape" result="effect1_innerShadow_1527_873"/>
</filter>
<filter id="filter3_i_1527_873" x="8.54581" y="11.1328" width="38.9013" height="36.0269" filterUnits="userSpaceOnUse" color-interpolation-filters="sRGB">
<feFlood flood-opacity="0" result="BackgroundImageFix"/>
<feBlend mode="normal" in="SourceGraphic" in2="BackgroundImageFix" result="shape"/>
<feColorMatrix in="SourceAlpha" type="matrix" values="0 0 0 0 0 0 0 0 0 0 0 0 0 0 0 0 0 0 127 0" result="hardAlpha"/>
<feOffset dy="1"/>
<feGaussianBlur stdDeviation="1.5"/>
<feComposite in2="hardAlpha" operator="arithmetic" k2="-1" k3="1"/>
<feColorMatrix type="matrix" values="0 0 0 0 0.88 0 0 0 0 0.847619 0 0 0 0 0.992381 0 0 0 1 0"/>
<feBlend mode="plus-lighter" in2="shape" result="effect1_innerShadow_1527_873"/>
</filter>
<filter id="filter4_f_1527_873" x="33.2899" y="15.7952" width="13.8581" height="28.6421" filterUnits="userSpaceOnUse" color-interpolation-filters="sRGB">
<feFlood flood-opacity="0" result="BackgroundImageFix"/>
<feBlend mode="normal" in="SourceGraphic" in2="BackgroundImageFix" result="shape"/>
<feGaussianBlur stdDeviation="1" result="effect1_foregroundBlur_1527_873"/>
</filter>
<filter id="filter5_f_1527_873" x="8.8858" y="14.312" width="15.9711" height="24.6052" filterUnits="userSpaceOnUse" color-interpolation-filters="sRGB">
<feFlood flood-opacity="0" result="BackgroundImageFix"/>
<feBlend mode="normal" in="SourceGraphic" in2="BackgroundImageFix" result="shape"/>
<feGaussianBlur stdDeviation="0.5" result="effect1_foregroundBlur_1527_873"/>
</filter>
<radialGradient id="paint0_radial_1527_873" cx="0" cy="0" r="1" gradientUnits="userSpaceOnUse" gradientTransform="translate(42.1179 6.51188) rotate(53.3911) scale(12.8322 9.09477)">
<stop stop-color="white"/>
<stop offset="1" stop-color="#8D93A5"/>
</radialGradient>
<radialGradient id="paint1_radial_1527_873" cx="0" cy="0" r="1" gradientUnits="userSpaceOnUse" gradientTransform="translate(12.8085 7.0414) rotate(123.976) scale(11.7829 7.29283)">
<stop stop-color="white"/>
<stop offset="1" stop-color="#8D93A5"/>
</radialGradient>
<radialGradient id="paint2_radial_1527_873" cx="0" cy="0" r="1" gradientUnits="userSpaceOnUse" gradientTransform="translate(26.9773 9.14058) rotate(48.2799) scale(31.628 29.1951)">
<stop stop-color="#F3F4F6"/>
<stop offset="1" stop-color="#8D93A5"/>
</radialGradient>
<linearGradient id="paint3_linear_1527_873" x1="27.1508" y1="10.8784" x2="27.1508" y2="46.1602" gradientUnits="userSpaceOnUse">
<stop stop-color="#F3F4F6"/>
<stop offset="1" stop-color="#E0D8FD"/>
</linearGradient>
<linearGradient id="paint4_linear_1527_873" x1="6.04044" y1="28.173" x2="49.9542" y2="28.173" gradientUnits="userSpaceOnUse">
<stop stop-color="#8D93A5"/>
<stop offset="0.24" stop-color="white"/>
<stop offset="0.56" stop-color="#8D93A5"/>
<stop offset="0.72" stop-color="#8D93A5"/>
<stop offset="0.88" stop-color="#E0D8FD"/>
<stop offset="1" stop-color="#8D93A5"/>
</linearGradient>
<radialGradient id="paint5_radial_1527_873" cx="0" cy="0" r="1" gradientUnits="userSpaceOnUse" gradientTransform="translate(2.84002 1.89335) rotate(135) scale(2.6776)">
<stop stop-color="#8D93A5"/>
<stop offset="0.615385" stop-color="#26272C"/>
</radialGradient>
<radialGradient id="paint6_radial_1527_873" cx="0" cy="0" r="1" gradientUnits="userSpaceOnUse" gradientTransform="translate(18.5303 26.2793) rotate(38.6598) scale(3.03084)">
<stop stop-color="#8D93A5"/>
<stop offset="0.615385" stop-color="#26272C"/>
</radialGradient>
<radialGradient id="paint7_radial_1527_873" cx="0" cy="0" r="1" gradientUnits="userSpaceOnUse" gradientTransform="translate(17.0026 14.6926) rotate(55.0564) scale(38.3884 46.4307)">
<stop stop-color="#18DCCF"/>
<stop offset="0.644231" stop-color="#6138F5"/>
<stop offset="1" stop-color="#F373FC"/>
</radialGradient>
<linearGradient id="paint8_linear_1527_873" x1="44.3564" y1="28.7079" x2="37.3268" y2="30.5915" gradientUnits="userSpaceOnUse">
<stop stop-color="white" stop-opacity="0.6"/>
<stop offset="1" stop-color="white" stop-opacity="0.2"/>
</linearGradient>
<linearGradient id="paint9_linear_1527_873" x1="12.6726" y1="23.9134" x2="18.9752" y2="27.5522" gradientUnits="userSpaceOnUse">
<stop stop-color="white" stop-opacity="0.8"/>
<stop offset="1" stop-color="white" stop-opacity="0.2"/>
</linearGradient>
</defs>
</svg>
