<svg width="40" height="40" viewBox="0 0 40 40" fill="none" xmlns="http://www.w3.org/2000/svg">
<mask id="path-1-inside-1_1874_1112" fill="white">
<path d="M0 8C0 3.58172 3.58172 0 8 0H40V40H8C3.58172 40 0 36.4183 0 32V8Z"/>
</mask>
<path d="M0 8C0 3.58172 3.58172 0 8 0H40V40H8C3.58172 40 0 36.4183 0 32V8Z" fill="url(#paint0_linear_1874_1112)"/>
<path d="M-4 8C-4 1.37258 1.37258 -4 8 -4H40V4H8C5.79086 4 4 5.79086 4 8H-4ZM40 44H8C1.37258 44 -4 38.6274 -4 32H4C4 34.2091 5.79086 36 8 36H40V44ZM8 44C1.37258 44 -4 38.6274 -4 32V8C-4 1.37258 1.37258 -4 8 -4V4C5.79086 4 4 5.79086 4 8V32C4 34.2091 5.79086 36 8 36V44ZM40 0V40V0Z" fill="white" mask="url(#path-1-inside-1_1874_1112)"/>
<path d="M20 11.6667C15.4 11.6667 11.6667 15.4001 11.6667 20.0001C11.6667 24.6001 15.4 28.3334 20 28.3334C24.6 28.3334 28.3333 24.6001 28.3333 20.0001C28.3333 15.4001 24.6 11.6667 20 11.6667ZM20.8333 25.8334H19.1667V24.1667H20.8333V25.8334ZM22.5583 19.3751L21.8083 20.1417C21.2083 20.7501 20.8333 21.2501 20.8333 22.5001H19.1667V22.0834C19.1667 21.1667 19.5417 20.3334 20.1417 19.7251L21.175 18.6751C21.4833 18.3751 21.6667 17.9584 21.6667 17.5001C21.6667 16.5834 20.9167 15.8334 20 15.8334C19.0833 15.8334 18.3333 16.5834 18.3333 17.5001H16.6667C16.6667 15.6584 18.1583 14.1667 20 14.1667C21.8417 14.1667 23.3333 15.6584 23.3333 17.5001C23.3333 18.2334 23.0333 18.9001 22.5583 19.3751Z" fill="#6138F5"/>
<defs>
<linearGradient id="paint0_linear_1874_1112" x1="4.96705e-07" y1="6.66667" x2="24.6154" y2="43.5897" gradientUnits="userSpaceOnUse">
<stop stop-color="#D1F8F5" stop-opacity="0.96"/>
<stop offset="1" stop-color="#E8D7FD" stop-opacity="0.96"/>
</linearGradient>
</defs>
</svg>
