<svg width="40" height="41" viewBox="0 0 40 41" fill="none" xmlns="http://www.w3.org/2000/svg">
<mask id="path-1-inside-1_1648_2308" fill="white">
<path d="M0 8.90723C0 4.48895 3.58172 0.907227 8 0.907227H40V40.9072H8C3.58172 40.9072 0 37.3255 0 32.9072V8.90723Z"/>
</mask>
<path d="M0 8.90723C0 4.48895 3.58172 0.907227 8 0.907227H40V40.9072H8C3.58172 40.9072 0 37.3255 0 32.9072V8.90723Z" fill="url(#paint0_linear_1648_2308)"/>
<path d="M-4 8.90723C-4 2.27981 1.37258 -3.09277 8 -3.09277H40V4.90723H8C5.79086 4.90723 4 6.69809 4 8.90723H-4ZM40 44.9072H8C1.37258 44.9072 -4 39.5346 -4 32.9072H4C4 35.1164 5.79086 36.9072 8 36.9072H40V44.9072ZM8 44.9072C1.37258 44.9072 -4 39.5346 -4 32.9072V8.90723C-4 2.27981 1.37258 -3.09277 8 -3.09277V4.90723C5.79086 4.90723 4 6.69809 4 8.90723V32.9072C4 35.1164 5.79086 36.9072 8 36.9072V44.9072ZM40 0.907227V40.9072V0.907227Z" fill="white" mask="url(#path-1-inside-1_1648_2308)"/>
<path d="M25.8333 14.2404H25V12.5737H23.3333V14.2404H16.6667V12.5737H15V14.2404H14.1667C13.25 14.2404 12.5 14.9904 12.5 15.9071V27.5737C12.5 28.4904 13.25 29.2404 14.1667 29.2404H25.8333C26.75 29.2404 27.5 28.4904 27.5 27.5737V15.9071C27.5 14.9904 26.75 14.2404 25.8333 14.2404ZM25.8333 27.5737H14.1667V19.2404H25.8333V27.5737ZM14.1667 17.5737V15.9071H25.8333V17.5737H14.1667ZM15.8333 20.9071H24.1667V22.5737H15.8333V20.9071ZM15.8333 24.2404H21.6667V25.9071H15.8333V24.2404Z" fill="#6138F5"/>
<defs>
<linearGradient id="paint0_linear_1648_2308" x1="4.96705e-07" y1="7.57389" x2="24.6154" y2="44.497" gradientUnits="userSpaceOnUse">
<stop stop-color="#D1F8F5" stop-opacity="0.96"/>
<stop offset="1" stop-color="#E8D7FD" stop-opacity="0.96"/>
</linearGradient>
</defs>
</svg>
