<svg width="20" height="20" viewBox="0 0 20 20" fill="none" xmlns="http://www.w3.org/2000/svg">
<path d="M10 1.66675C5.40001 1.66675 1.66667 5.40008 1.66667 10.0001C1.66667 14.6001 5.40001 18.3334 10 18.3334C14.6 18.3334 18.3333 14.6001 18.3333 10.0001C18.3333 5.40008 14.6 1.66675 10 1.66675ZM10.8333 15.8334H9.16667V14.1667H10.8333V15.8334ZM12.5583 9.37508L11.8083 10.1417C11.2083 10.7501 10.8333 11.2501 10.8333 12.5001H9.16667V12.0834C9.16667 11.1667 9.54167 10.3334 10.1417 9.72508L11.175 8.67508C11.4833 8.37508 11.6667 7.95842 11.6667 7.50008C11.6667 6.58342 10.9167 5.83342 10 5.83342C9.08334 5.83342 8.33334 6.58342 8.33334 7.50008H6.66667C6.66667 5.65841 8.15834 4.16675 10 4.16675C11.8417 4.16675 13.3333 5.65841 13.3333 7.50008C13.3333 8.23342 13.0333 8.90008 12.5583 9.37508Z" fill="#6138F5"/>
</svg>
