<svg width="20" height="20" viewBox="0 0 20 20" fill="none" xmlns="http://www.w3.org/2000/svg">
<path d="M17.7452 3.43709L13.9202 7.26209L15.2452 8.58709C15.7702 9.11209 15.3952 10.0121 14.6535 10.0121H10.8368C10.3785 10.0121 10.0035 9.63709 10.0035 9.17876V5.34543C10.0035 4.60376 10.9035 4.22876 11.4285 4.75376L12.7535 6.07876L16.5785 2.25376C16.9035 1.92876 17.4285 1.92876 17.7535 2.25376C18.0702 2.58709 18.0702 3.11209 17.7452 3.43709ZM3.43685 17.7454L7.26185 13.9204L8.58685 15.2454C9.11185 15.7704 10.0118 15.3954 10.0118 14.6538V10.8371C10.0118 10.3788 9.63685 10.0038 9.17852 10.0038H5.34518C4.60352 10.0038 4.22852 10.9038 4.75352 11.4288L6.07852 12.7538L2.25352 16.5788C1.92852 16.9038 1.92852 17.4288 2.25352 17.7538C2.58685 18.0704 3.11185 18.0704 3.43685 17.7454Z" fill="#6138F5"/>
</svg>
