<svg width="24" height="25" viewBox="0 0 24 25" fill="none" xmlns="http://www.w3.org/2000/svg">
<path d="M20 2.90723H8C6.9 2.90723 6 3.80723 6 4.90723V16.9072C6 18.0072 6.9 18.9072 8 18.9072H20C21.1 18.9072 22 18.0072 22 16.9072V4.90723C22 3.80723 21.1 2.90723 20 2.90723ZM11.5 10.4072C11.5 11.2372 10.83 11.9072 10 11.9072H9V13.9072H7.5V7.90723H10C10.83 7.90723 11.5 8.57723 11.5 9.40723V10.4072ZM16.5 12.4072C16.5 13.2372 15.83 13.9072 15 13.9072H12.5V7.90723H15C15.83 7.90723 16.5 8.57723 16.5 9.40723V12.4072ZM20.5 9.40723H19V10.4072H20.5V11.9072H19V13.9072H17.5V7.90723H20.5V9.40723ZM9 10.4072H10V9.40723H9V10.4072ZM4 6.90723H2V20.9072C2 22.0072 2.9 22.9072 4 22.9072H18V20.9072H4V6.90723ZM14 12.4072H15V9.40723H14V12.4072Z" fill="#6138F5"/>
</svg>
