<svg width="24" height="25" viewBox="0 0 24 25" fill="none" xmlns="http://www.w3.org/2000/svg">
<path d="M6.62 11.7023C8.06 14.5323 10.38 16.8423 13.21 18.2923L15.41 16.0923C15.68 15.8223 16.08 15.7323 16.43 15.8523C17.55 16.2223 18.76 16.4223 20 16.4223C20.55 16.4223 21 16.8723 21 17.4223V20.9123C21 21.4623 20.55 21.9123 20 21.9123C10.61 21.9123 3 14.3023 3 4.91234C3 4.36234 3.45 3.91234 4 3.91234H7.5C8.05 3.91234 8.5 4.36234 8.5 4.91234C8.5 6.16234 8.7 7.36234 9.07 8.48234C9.18 8.83234 9.1 9.22234 8.82 9.50234L6.62 11.7023ZM20.16 4.60234L19.45 3.90234L13 10.2023V5.91234H12V11.9123H18V10.9123H13.85L20.16 4.60234Z" fill="#E0D8FD"/>
</svg>
