<svg width="25" height="25" viewBox="0 0 25 25" fill="none" xmlns="http://www.w3.org/2000/svg">
<path d="M7.12 11.6972C8.56 14.5272 10.88 16.8372 13.71 18.2872L15.91 16.0872C16.18 15.8172 16.58 15.7272 16.93 15.8472C18.05 16.2172 19.26 16.4172 20.5 16.4172C21.05 16.4172 21.5 16.8672 21.5 17.4172V20.9072C21.5 21.4572 21.05 21.9072 20.5 21.9072C11.11 21.9072 3.5 14.2972 3.5 4.90723C3.5 4.35723 3.95 3.90723 4.5 3.90723H8C8.55 3.90723 9 4.35723 9 4.90723C9 6.15723 9.2 7.35723 9.57 8.47723C9.68 8.82723 9.6 9.21723 9.32 9.49723L7.12 11.6972Z" fill="#6138F5"/>
</svg>
