<svg width="16" height="17" viewBox="0 0 16 17" fill="none" xmlns="http://www.w3.org/2000/svg">
<path d="M7.11165 4.04527L8.11516 6.51815C8.53468 7.55232 9.35491 8.37255 10.3891 8.79207L12.862 9.79557C13.3191 9.98129 13.3191 10.6287 12.862 10.8141L10.3891 11.8176C9.35491 12.2371 8.53468 13.0573 8.11516 14.0915L7.11165 16.5644C6.92594 17.0215 6.27853 17.0215 6.09316 16.5644L5.08966 14.0915C4.67014 13.0573 3.84991 12.2371 2.81574 11.8176L0.342865 10.8141C-0.114288 10.6283 -0.114288 9.98094 0.342865 9.79557L2.81574 8.79207C3.84991 8.37255 4.67014 7.55232 5.08966 6.51815L6.09316 4.04527C6.27853 3.58812 6.92594 3.58812 7.11165 4.04527ZM13.2034 1.14138L13.4968 1.98739C13.7282 2.65465 14.2526 3.17905 14.9198 3.41042L15.7659 3.7038C16.0781 3.81217 16.0781 4.25364 15.7659 4.36201L14.9198 4.65539C14.2526 4.88676 13.7282 5.41116 13.4968 6.07842L13.2034 6.92443C13.0951 7.23663 12.6536 7.23663 12.5452 6.92443L12.2518 6.07842C12.0205 5.41116 11.4961 4.88676 10.8288 4.65539L9.9828 4.36201C9.67059 4.25364 9.67059 3.81217 9.9828 3.7038L10.8288 3.41042C11.4961 3.17905 12.0205 2.65465 12.2518 1.98739L12.5452 1.14138C12.6532 0.829176 13.0951 0.829176 13.2034 1.14138Z" fill="#6138F5"/>
</svg>
